<mxfile host="app.diagrams.net" agent="Mozilla/5.0 (Windows NT 10.0; Win64; x64) AppleWebKit/537.36 (KHTML, like Gecko) Chrome/141.0.0.0 Safari/537.36" version="28.2.7">
  <diagram name="Page-1" id="lIVkYPCjAAJWQf0XHAB5">
    <mxGraphModel dx="786" dy="451" grid="1" gridSize="10" guides="1" tooltips="1" connect="1" arrows="1" fold="1" page="1" pageScale="1" pageWidth="850" pageHeight="1100" math="0" shadow="0">
      <root>
        <mxCell id="0" />
        <mxCell id="1" parent="0" />
        <mxCell id="Z4LNw-Z-FXCejBMIM9eY-4" value="" style="edgeStyle=orthogonalEdgeStyle;rounded=0;orthogonalLoop=1;jettySize=auto;html=1;" edge="1" parent="1" source="Z4LNw-Z-FXCejBMIM9eY-2" target="Z4LNw-Z-FXCejBMIM9eY-3">
          <mxGeometry relative="1" as="geometry" />
        </mxCell>
        <mxCell id="Z4LNw-Z-FXCejBMIM9eY-2" value="start" style="ellipse;whiteSpace=wrap;html=1;" vertex="1" parent="1">
          <mxGeometry x="320" y="130" width="120" height="80" as="geometry" />
        </mxCell>
        <mxCell id="Z4LNw-Z-FXCejBMIM9eY-6" value="" style="edgeStyle=orthogonalEdgeStyle;rounded=0;orthogonalLoop=1;jettySize=auto;html=1;" edge="1" parent="1" source="Z4LNw-Z-FXCejBMIM9eY-3" target="Z4LNw-Z-FXCejBMIM9eY-5">
          <mxGeometry relative="1" as="geometry" />
        </mxCell>
        <mxCell id="Z4LNw-Z-FXCejBMIM9eY-3" value="masukan sebuah angka" style="shape=parallelogram;perimeter=parallelogramPerimeter;whiteSpace=wrap;html=1;fixedSize=1;" vertex="1" parent="1">
          <mxGeometry x="320" y="300" width="120" height="60" as="geometry" />
        </mxCell>
        <mxCell id="Z4LNw-Z-FXCejBMIM9eY-8" value="tidak" style="edgeStyle=orthogonalEdgeStyle;rounded=0;orthogonalLoop=1;jettySize=auto;html=1;" edge="1" parent="1" source="Z4LNw-Z-FXCejBMIM9eY-5" target="Z4LNw-Z-FXCejBMIM9eY-7">
          <mxGeometry relative="1" as="geometry" />
        </mxCell>
        <mxCell id="Z4LNw-Z-FXCejBMIM9eY-10" value="ya" style="edgeStyle=orthogonalEdgeStyle;rounded=0;orthogonalLoop=1;jettySize=auto;html=1;" edge="1" parent="1" source="Z4LNw-Z-FXCejBMIM9eY-5" target="Z4LNw-Z-FXCejBMIM9eY-9">
          <mxGeometry relative="1" as="geometry" />
        </mxCell>
        <mxCell id="Z4LNw-Z-FXCejBMIM9eY-5" value="apakah %2 == 0" style="rhombus;whiteSpace=wrap;html=1;" vertex="1" parent="1">
          <mxGeometry x="340" y="430" width="80" height="80" as="geometry" />
        </mxCell>
        <mxCell id="Z4LNw-Z-FXCejBMIM9eY-14" value="" style="edgeStyle=orthogonalEdgeStyle;rounded=0;orthogonalLoop=1;jettySize=auto;html=1;" edge="1" parent="1" source="Z4LNw-Z-FXCejBMIM9eY-7" target="Z4LNw-Z-FXCejBMIM9eY-15">
          <mxGeometry relative="1" as="geometry">
            <mxPoint x="220" y="630" as="targetPoint" />
            <Array as="points">
              <mxPoint x="190" y="610" />
            </Array>
          </mxGeometry>
        </mxCell>
        <mxCell id="Z4LNw-Z-FXCejBMIM9eY-7" value="angka merupakan bilangan ganjil" style="shape=parallelogram;perimeter=parallelogramPerimeter;whiteSpace=wrap;html=1;fixedSize=1;" vertex="1" parent="1">
          <mxGeometry x="160" y="440" width="120" height="60" as="geometry" />
        </mxCell>
        <mxCell id="Z4LNw-Z-FXCejBMIM9eY-12" value="" style="edgeStyle=orthogonalEdgeStyle;rounded=0;orthogonalLoop=1;jettySize=auto;html=1;entryX=1.011;entryY=0.6;entryDx=0;entryDy=0;entryPerimeter=0;" edge="1" parent="1" source="Z4LNw-Z-FXCejBMIM9eY-9" target="Z4LNw-Z-FXCejBMIM9eY-15">
          <mxGeometry relative="1" as="geometry">
            <mxPoint x="540" y="580" as="targetPoint" />
            <Array as="points">
              <mxPoint x="540" y="618" />
            </Array>
          </mxGeometry>
        </mxCell>
        <mxCell id="Z4LNw-Z-FXCejBMIM9eY-9" value="angka merupakan bilangan ganjil" style="shape=parallelogram;perimeter=parallelogramPerimeter;whiteSpace=wrap;html=1;fixedSize=1;" vertex="1" parent="1">
          <mxGeometry x="480" y="440" width="120" height="60" as="geometry" />
        </mxCell>
        <mxCell id="Z4LNw-Z-FXCejBMIM9eY-15" value="end" style="ellipse;whiteSpace=wrap;html=1;" vertex="1" parent="1">
          <mxGeometry x="320" y="570" width="120" height="80" as="geometry" />
        </mxCell>
      </root>
    </mxGraphModel>
  </diagram>
</mxfile>
